<svg width="72" height="50" viewBox="0 0 72 50" fill="none" xmlns="http://www.w3.org/2000/svg">
<path fill-rule="evenodd" clip-rule="evenodd" d="M65.7391 50H6.26087C2.8033 50 0 47.2016 0 43.75V6.25C0 2.79844 2.8033 0 6.26087 0H65.7391C69.1967 0 72 2.79844 72 6.25V43.75C72 47.2016 69.1967 50 65.7391 50ZM3.13043 20.3125H68.8696V14.0625H3.13043V20.3125ZM68.8696 6.25C68.8696 4.525 67.4671 3.125 65.7391 3.125H6.26087C4.53287 3.125 3.13043 4.525 3.13043 6.25V10.9375H68.8696V6.25ZM68.8696 23.4375H3.13043V43.75C3.13043 45.475 4.53287 46.875 6.26087 46.875H65.7391C67.4671 46.875 68.8696 45.475 68.8696 43.75V23.4375ZM39.1304 32.8125H32.8696C32.004 32.8125 31.3043 32.1141 31.3043 31.25C31.3043 30.3875 32.004 29.6875 32.8696 29.6875H39.1304C39.996 29.6875 40.6957 30.3875 40.6957 31.25C40.6957 32.1141 39.996 32.8125 39.1304 32.8125ZM25.0435 32.8125H10.9565C10.091 32.8125 9.3913 32.1141 9.3913 31.25C9.3913 30.3875 10.091 29.6875 10.9565 29.6875H25.0435C25.909 29.6875 26.6087 30.3875 26.6087 31.25C26.6087 32.1141 25.909 32.8125 25.0435 32.8125ZM10.9565 37.5H20.3478C21.2134 37.5 21.913 38.2 21.913 39.0625C21.913 39.9266 21.2134 40.625 20.3478 40.625H10.9565C10.091 40.625 9.3913 39.9266 9.3913 39.0625C9.3913 38.2 10.091 37.5 10.9565 37.5Z" fill="#DB3333"/>
</svg>
