<svg width="75" height="54" viewBox="0 0 75 54" fill="none" xmlns="http://www.w3.org/2000/svg">
<path d="M50.9694 3.23155V2.34356C50.9694 1.04972 49.9196 0 48.6258 0H2.34356C1.04972 0 0 1.04972 0 2.34356V44.7717C0 46.0656 1.04972 47.1153 2.34356 47.1153H12.0134C13.041 50.7107 16.3195 53.3648 20.2407 53.3648C24.1619 53.3648 27.4403 50.7107 28.4679 47.1153H48.6258H52.5527C53.5803 50.7107 56.8588 53.3648 60.78 53.3648C64.7012 53.3648 67.9796 50.7107 69.0072 47.1153H72.1133C72.2096 47.1153 72.2916 47.0716 72.3849 47.0604C72.4781 47.0716 72.5601 47.1153 72.6564 47.1153C73.9503 47.1153 75 46.0656 75 44.7717V26.8365C75 14.4735 64.417 4.30301 50.9694 3.23155ZM70.2227 25.2741H61.4208C59.1749 24.6592 58.7202 20.6374 58.7202 14.3741V10.0122C65.1074 12.9733 69.6042 18.6461 70.2227 25.2741ZM55.5954 8.83831V14.3741C55.5954 21.1668 56.0013 27.3476 60.9203 28.3668C61.0241 28.3882 61.1309 28.3989 61.2377 28.3989H70.3129V42.4282H69.0072C67.9796 38.8327 64.7012 36.1787 60.78 36.1787C56.8588 36.1787 53.5803 38.8327 52.5527 42.4282H48.6258H28.4679C28.1202 41.2118 27.5195 40.1134 26.7133 39.1814H48.6258C49.255 39.1814 49.789 38.8055 50.0367 38.2701C50.59 37.8412 50.9694 37.2009 50.9694 36.4472V7.92763C52.5722 8.07944 54.116 8.39604 55.5954 8.83831ZM46.2822 36.0566H4.68712V4.68712H46.2822V36.0566ZM4.68712 39.1814H13.768C12.9619 40.1134 12.3611 41.2118 12.0134 42.4282H4.68712V39.1814ZM20.2407 48.6777C18.0863 48.6777 16.3347 46.9261 16.3347 44.7717C16.3347 42.6174 18.0863 40.8658 20.2407 40.8658C22.3924 40.8658 24.1409 42.6136 24.1451 44.7641C24.1451 44.7668 24.1435 44.7691 24.1435 44.7717C24.1435 44.7744 24.1451 44.7767 24.1451 44.7794C24.1409 46.9299 22.3924 48.6777 20.2407 48.6777ZM60.78 48.6777C58.6256 48.6777 56.874 46.9261 56.874 44.7717C56.874 42.6174 58.6256 40.8658 60.78 40.8658C62.9343 40.8658 64.6859 42.6174 64.6859 44.7717C64.6859 46.9261 62.9343 48.6777 60.78 48.6777Z" fill="#DB3333"/>
</svg>
