<svg width="66" height="54" viewBox="0 0 66 54" fill="none" xmlns="http://www.w3.org/2000/svg">
<path d="M61.9591 28.285H59.2653V25.5912C59.2653 21.1463 55.2246 18.8567 51.1839 18.8567H10.7752C5.38762 18.8567 0 15.6242 0 9.42834C0 3.23243 5.38762 0 10.7752 0H52.7997C58.1873 0 61.9591 3.77177 61.9591 9.42834V16.1629H59.2653V9.42762C59.2653 5.25243 56.8411 2.69309 52.7997 2.69309H10.7752C6.73453 2.69309 2.69381 4.98276 2.69381 9.42762C2.69381 13.8725 6.73453 16.1621 10.7752 16.1621H51.1831C56.5708 16.1621 61.9584 19.3946 61.9584 25.5905L61.9591 28.285Z" fill="#DB3333"/>
<path d="M52.5308 53.8769H9.42834C3.63657 53.8769 0 50.1268 0 44.1538V9.42834L2.69381 9.42762V44.1538C2.69381 48.5986 5.11795 51.099 9.42834 51.099H52.53C56.5708 51.099 59.2646 48.3211 59.2646 44.1538V41.3758H61.9584V44.1538C61.9591 49.8485 58.0529 53.8769 52.5308 53.8769Z" fill="#DB3333"/>
<path d="M50.5103 5.3869H8.75553V8.08071H50.5103V5.3869Z" fill="#DB3333"/>
<path d="M50.044 16.3034H21.7583V18.9972H50.044V16.3034Z" fill="#DB3333"/>
<path d="M61.9593 43.1018H53.8779C49.433 43.1018 45.7964 39.4652 45.7964 35.0203C45.7964 30.5748 49.433 26.9382 53.8779 26.9382H61.9593C64.2489 26.9382 66 28.6892 66 30.9789V39.0603C66 41.3507 64.2489 43.1018 61.9593 43.1018ZM53.8779 29.632C50.9144 29.632 48.4902 32.0562 48.4902 35.0196C48.4902 37.9831 50.9144 40.4073 53.8779 40.4073H61.9593C62.7676 40.4073 63.3062 39.8686 63.3062 39.0603V30.9789C63.3062 30.1706 62.7676 29.632 61.9593 29.632H53.8779Z" fill="#DB3333"/>
<path d="M55.2248 39.0604C52.9351 39.0604 51.1841 37.3093 51.1841 35.0196C51.1841 32.73 52.9351 30.9789 55.2248 30.9789C57.5144 30.9789 59.2655 32.73 59.2655 35.0196C59.2655 37.3093 57.5144 39.0604 55.2248 39.0604ZM55.2248 33.6727C54.4165 33.6727 53.8779 34.2114 53.8779 35.0196C53.8779 35.8279 54.4165 36.3665 55.2248 36.3665C56.0331 36.3665 56.5717 35.8279 56.5717 35.0196C56.5717 34.2114 56.0331 33.6727 55.2248 33.6727Z" fill="#DB3333"/>
</svg>
