<svg width="19" height="19" viewBox="0 0 19 19" fill="none" xmlns="http://www.w3.org/2000/svg">
<circle cx="9.5" cy="9.5" r="9.5" fill="white"/>
<path d="M9.50002 0C4.25204 0 0 4.25199 0 9.49998C0 14.748 4.25204 19 9.50002 19C14.748 19 19 14.748 19 9.49998C19 4.25199 14.748 0 9.50002 0ZM14.7863 6.74193L8.84879 13.8286L4.32865 9.30844C4.0222 9.00199 4.0222 8.50404 4.32865 8.23589C4.6351 7.92944 5.09475 7.92944 5.4012 8.23589L8.73389 11.5685L13.5988 5.78427C13.8669 5.47782 14.3649 5.40118 14.6714 5.66933C15.0162 5.93748 15.0927 6.43548 14.7863 6.74193Z" fill="#D9D9D9"/>
</svg>
