<svg width="7" height="11" viewBox="0 0 7 11" fill="none" xmlns="http://www.w3.org/2000/svg">
<path d="M0.878903 1.76679V0.458208C0.878903 0.205296 1.09359 0 1.35844 0H5.63852C5.90321 0 6.11806 0.20514 6.11806 0.458208V1.76679H0.878903Z" fill="#DB3333"/>
<path d="M5.90316 2.98866C5.59354 2.98866 5.34258 2.74854 5.34258 2.45267V1.99163H1.65756V2.45267C1.65756 2.74838 1.40643 2.98866 1.09682 2.98866C0.490977 2.98866 0 3.45813 0 4.03705V9.95192C0 10.5307 0.490977 11 1.09682 11H5.90316C6.509 11 6.99998 10.5307 6.99998 9.95192V4.0369C6.99998 3.45798 6.509 2.98866 5.90316 2.98866ZM5.60106 9.48729H1.39908V4.75102H5.60106V9.48729Z" fill="#DB3333"/>
</svg>
